<svg id="Layer_1" data-name="Layer 1" xmlns="http://www.w3.org/2000/svg" viewBox="0 0 180.03 246.67"><defs><style>.cls-1{fill:#fff;}</style></defs><title>farley</title><path class="cls-1" d="M7.53,62.27c7.07-7.08,15.41-8.4,25.14-7,8.81,1.3,17.88,1.26,26.82,1,2.84-.07,6-2.06,8.35-4C80.29,41.62,95.22,37.77,111,36.15c3.63-.37,5.9-1.94,7.88-5.07,7.19-11.39,15.89-21.31,28.65-26.81h9c12,8.34,14.29,21.36,16.64,34.37a5.79,5.79,0,0,1,.11,1,41.45,41.45,0,0,0,8.25,25.47c6.65,9,5.12,20.07,5.8,30.46,0.62,9.37.15,18.66-4.08,27.37-3.74,7.69-11,13.44-12.23,22.54-0.19,1.36-2,2.51-3.84,4.78-0.51-7.78-.23-14.09,4.52-19.24,7.92-8.59,11.1-18.82,10.8-30.26-0.18-7,.24-14.19-1.32-20.9-1.5-6.46-5.27-12.38-7.86-18.62a66.29,66.29,0,0,1-4.07-11.47c-1.76-8.29-3-16.69-4.51-25a24.51,24.51,0,0,0-1.87-5.15c-5-11.44-11.81-14-21.33-6C134,19.9,128,28.08,121.83,35.88c-2.26,2.88-4.31,4.71-7.93,5a85.48,85.48,0,0,0-9.39,1.38c-9.13,1.74-18.76,2.35-26,9.15C65.15,63.92,49.16,63.08,32.88,60.76c-7.26-1-8.8.09-8.7,7.47a20.49,20.49,0,0,1-.24,2.38,4.78,4.78,0,0,1-1.62.43c-7.54-1.35-8.56-.07-6.95,7.77,1,5,3,8.06,8.81,8.88,5.27,0.74,10.16,3.89,15.42,5.18,5.41,1.33,11,1.71,16.59,2.46,4.85,0.65,9.71,1.23,14.5,2.21-16.59.69-33,.1-48.75-6.43,1,4.85,3.8,6.41,7.42,7.1,13.46,2.56,26.35,6.13,37.87,14.39,7.77,5.57,17,9.15,25.52,13.63,1.82,1,3.64,1.93,5.46,2.9l-0.66,1.28-22-10.91c3,5.72,6.66,11.26,9,17.32,4.2,11.11,3.34,21.92-4.32,31.63-10.08,12.76-15.49,27.89-21.33,42.76-3.83,9.77-2.76,20-1.94,30.15a4.56,4.56,0,0,0,2.91,3.12c4.53,0.93,9.16,1.37,14.53,2.1V225l15.51,6.61c-0.29-1.71-.23-2.67-0.61-3.41-4.32-8.48-3.44-16.88.81-24.94A136.36,136.36,0,0,1,99,189.45c2.46-3.54,4.92-6.7,4.83-11.61,0-2.67,2.43-5.74,4.44-8,7.28-8.3,9.32-17.3,4.63-27.53l1.1-.65c1.23,2.07,3.08,4,3.59,6.24A24,24,0,0,1,112,169.76c-3.07,3.55-6.17,6.74-5.54,12.22,0.23,2-1.94,4.43-3.25,6.52C99.52,194.4,95.2,200,92,206.16c-3.69,7.16-3.84,14.7,1.1,22.68l13.42-15.94,0.94,0.73c-4.71,6.52-9.39,13.06-14.15,19.55-3.45,4.7-6.73,9.58-10.63,13.88-1.8,2-4.92,3.91-7.41,3.88A145.31,145.31,0,0,1,55,248.81c-1.22-.19-3-2.3-3.06-3.62-0.89-12.61-2.24-25.31,2.79-37.49,5.72-13.84,10.94-27.87,19.84-40.2,10-13.86,9.25-28.84-1.8-42-6.83-8.15-14.83-14.87-25.52-17.52-6.45-1.6-13-2.83-19.28-5-3.45-1.17-7.71-3.1-9.3-6-3.73-6.73-6.07-14.23-9-21.42L7.53,70.27v-8Zm80.67,172-10.54-4.32-1.18,15.92,1.15,0.4ZM23,60.54c-8.28,0-11.57,3-9.44,8l7.68-.7Z" transform="translate(-7.53 -4.27)"/><path class="cls-1" d="M117.46,129.11c4.21-5.71,8.25-11.55,12.69-17.08,2.72-3.39,6.68-3.21,10.5.44,3.21,3.08,5.94,6.67,9.25,10.45,2.69-5.18,5.1-10.18,7.82-15,3.74-6.63,4.83-6.78,11.81-1.35,1.35-5.33,2.93-10.08,3.65-15a33.73,33.73,0,0,0-.41-10.42c-2.48-14.51-7.37-18.92-22.08-20.42a24.5,24.5,0,0,1-2.43-.41c1-2.08,2.54-4,2.73-6.12,0.76-8.43,1.32-16.89,1.45-25.35,0-2.16-1.82-4.34-2.81-6.52-2.29,1.13-5.33,1.7-6.72,3.52a48,48,0,0,0-6.42,11.69C134,44,132.17,50.68,129.9,57.75c-3.75-11.21,3.76-32.48,12.14-38C149.22,15,155.61,17,156.86,25.4c1,6.82.41,13.89,0.36,20.85a58.65,58.65,0,0,1-.85,7.44c-0.5,3.64.34,5.9,4.64,6.42,5.35,0.65,8.89,4,11.22,8.89,6,12.51,6.16,25,.27,37.57a34.88,34.88,0,0,1-1.93,3.49,7.11,7.11,0,0,1-1.33,1.17l-6.61-5.79-11.91,23.64c-3.4-4-6.59-7.93-9.87-11.74-4.93-5.74-6.23-5.52-10.86.3-3.49,4.38-7.56,8.29-11.37,12.41Z" transform="translate(-7.53 -4.27)"/><path class="cls-1" d="M70.74,68.59c8-2.2,13.8-10.11,22.9-9.22,2.09,0.21,5.26,1.34,5.8,2.83,1.21,3.3-2.71,8.65-5.75,9a13.24,13.24,0,0,1-3,0C84.06,70.31,77.4,69.44,70.74,68.59ZM83,64.79l0.48,1.66c9.8,3.2,11.64,2.63,12.6-5.08Z" transform="translate(-7.53 -4.27)"/></svg>