<?xml version="1.0" encoding="utf-8"?>
<!-- Generator: Adobe Illustrator 19.2.1, SVG Export Plug-In . SVG Version: 6.00 Build 0)  -->
<svg version="1.1" id="Layer_1" xmlns="http://www.w3.org/2000/svg" xmlns:xlink="http://www.w3.org/1999/xlink" x="0px" y="0px"
	 viewBox="0 0 296.2 142.4" style="enable-background:new 0 0 296.2 142.4;" xml:space="preserve">
<style type="text/css">
	.st0{fill:#D22A2E;}
</style>
<path class="st0" d="M145.1,104c-1.1,2.1-2.1,3.6-2.9,5.3c-3.1,6.9-6.3,13.6-7.9,21.1c-0.4,1.8-1.2,3.5-2,5.2
	c-0.7,1.5-1.6,2.9-3.6,2.8c-1.9-0.1-2.3-1.8-2.7-3.1c-2.7-8.6-7-16.5-10.8-24.6c-1.2-2.6-2.7-5-4.3-8c-1.2,2.2-0.9,4-0.8,5.6
	c0.1,8.9,0.3,17.7,0.3,26.6c0,1.8,0.5,4.7-2.2,4.8c-2.3,0.1-2.8-2.5-3.3-4.4c-1.3-5-1.4-10.1-1.6-15.2c-0.4-9.7-0.9-19.5-0.2-29.2
	c0.1-2,0.3-4.2,2.7-4.7c2.1-0.4,3.3,1.3,4.4,2.8c6.9,9.1,11.6,19.4,16.7,29.5c0.6,1.2,1.2,2.3,2.1,4.1c2.4-5.8,4.5-11.2,6.7-16.4
	c2.1-4.8,4.3-9.6,6.4-14.3c0.6-1.4,1.5-2.6,2.6-3.6c2.6-2.2,4.9-1.5,5.9,1.8c1.4,4.8,1.7,9.8,2,14.8c0.6,10,1,20,1.4,29.9
	c0,1.1,0.1,2.3-0.1,3.4c-0.4,1.8-1.2,3.5-3.3,3.5s-2.9-1.7-3.2-3.5c-1-7.9-0.6-16-1.2-23.9C146.1,110.8,146.5,107.7,145.1,104z"/>
<path class="st0" d="M90.8,114.5c0.1,14.6-5.3,23.1-16.3,26.7c-7.6,2.5-18.2,1.7-24.6-8.7c-7.4-12.2-5.7-30.5,2.5-40
	c7.2-8.5,22.2-8.7,29.9-0.8C89.3,98.6,90.3,107.2,90.8,114.5z M83.2,115.2c0.1-3.2-0.1-6.1-0.8-9.1c-1.7-7.3-7.1-12.2-13.8-12.7
	c-6-0.4-11.8,3.6-14.4,10.5c-2.8,7.6-2.7,15.1,1,22.5c4,7.9,10.6,10.2,18.7,6.7C82,129.5,83.3,122.7,83.2,115.2z"/>
<path d="M95.6,40.3C95.7,53.7,89,63,77.2,65.9c-9.4,2.3-17.1-1.2-22.4-9.3C47.2,45,49,27.3,56.4,17.1c6.5-8.9,24.9-9.7,31.3-1.6
	C92.5,21.7,95.5,29.6,95.6,40.3z M87.6,38.6c0.3-4.4-0.2-8.7-2.2-12.7c-2.7-5.3-6.7-8.6-12.9-8.4c-6.2,0.1-10.4,3.5-12.8,8.8
	c-4.2,9.1-3.7,18.1,1.8,26.6c1.6,2.4,3.7,4.3,6.7,5.1c9.3,2.6,18.6-4.2,19.5-14.2C87.8,42.1,87.6,40.4,87.6,38.6z"/>
<path class="st0" d="M215,108.4c0-5.3-0.1-12.2,0-19.1c0.1-4.9,1.4-6,6.3-6.6C232,81.3,240,85.3,245,94.9
	c5.5,10.6,7.7,21.6,3.1,33.1c-1.2,3.1-3.4,5.6-6.4,7.1c-5.5,2.8-11.3,4.7-17.5,5c-5.2,0.3-7-1.2-7.7-6.4
	C215.5,125.9,215.6,117.9,215,108.4z M243,114c-0.1-3.9-2-9.6-4.5-15.3c-2.5-5.5-6.5-7.8-12.3-7.9c-4.9,0-5.7,0.6-5.5,5.6
	c0.5,9.5,1.1,19,1.8,28.4c0.6,8,0.8,8,8.7,5.9C240.7,128.3,243.1,125.4,243,114z"/>
<path class="st0" d="M187.1,139.7c-4.4,0-8.7,0-13.1,0c-3.3,0-5.1-1.5-5.4-4.8c-1.4-15.7-2.2-31.4-2.6-47.1c-0.1-3,1.3-5,4.6-5
	c9-0.2,18-0.3,27,0.5c1.5,0.1,3.5-0.2,3.6,2.3c0,2.2-1.2,3.6-3.3,3.9c-3.2,0.4-6.5,0.7-9.7,0.8c-4.2,0.2-8.5,0.3-12.7,0.4
	c-1.9,0-2.7,0.8-2.5,2.7c0.4,3.7,0.7,7.5,0.8,11.2c0,2.9,1.6,3.6,4,3.7c3.9,0.1,7.8-0.1,11.6,0.7c2.3,0.5,5.3,0.9,4.8,4.1
	c-0.4,2.9-2.9,3.8-5.7,3.6c-3.7-0.2-7.5-0.4-11.2-0.8c-2-0.2-3,0.3-2.8,2.6c0.3,3.5,0.4,7,0.5,10.5c0.1,2.7,1.1,3.9,4,4
	c6.6,0.1,13.2,0.6,19.8,0.9c2,0.1,4,0.1,3.9,3.2c-0.1,2.1-0.7,2.8-2.8,2.8C195.6,139.7,191.4,139.8,187.1,139.7
	C187.1,139.8,187.1,139.7,187.1,139.7z"/>
<path d="M198.1,57.9c0,1.7,0.4,3.8-1.9,4.3c-2.2,0.5-3.1-1.3-3.7-3c-1.2-3.4-2.3-6.8-3.3-10.3c-0.4-1.5-1-2.2-2.7-2.4
	c-5.1-0.5-10.1-1.2-15.2-1.9c-1.7-0.3-2.1,0.7-2.6,1.9c-1.7,3.9-3.4,7.7-5.1,11.6c-0.4,0.9-1,1.7-1.5,2.6c-0.9,1.4-1.8,3.1-3.7,2.3
	c-1.7-0.7-1.2-2.5-1-4c0.7-3.9,2.4-7.6,3.7-11.3c4.5-12.5,9-25,14.4-37.2c0.8-1.7,1.2-4.2,3.6-4.3c2.7-0.1,3.6,2.3,4.6,4.3
	c1.7,3.4,2.1,7.1,3.3,10.7c3.2,10.2,6.5,20.3,9.8,30.5C197.5,53.7,198.1,55.8,198.1,57.9z M179.8,18.8c-1.9,2.8-2.8,5.2-3.7,7.7
	c-4.3,11.5-4,11.9,8.3,11.2c0.2,0,0.3-0.2,0.6-0.5C183.1,31.3,181,25.5,179.8,18.8z"/>
<path class="st0" d="M19.9,83.3c3.3-0.2,6.8,0.9,10,3.1c1.3,0.9,2.3,2,2.3,3.7c0,1.9-0.4,3.6-3,2.6c-1.2-0.5-2.4-0.8-3.5-1.2
	c-9.4-2.9-16.2,1.3-18.1,11.1c-1.2,6.4-0.3,12.6,0.8,18.9c0.7,3.7,2.7,6.7,5.6,9c3.4,2.7,6.4,2.7,10.1,0.2c1.7-1.2,3.3-2.5,5.1-3.5
	c1-0.6,2.3-1.6,3.4-0.5c0.9,0.9,0.8,2.4,0.4,3.6c-2.9,7.4-11.2,13.5-20.2,8c-4-2.5-7.5-5.7-9-10.2c-4.3-12.1-5.7-24.3,1-36.1
	C7.8,86.1,12.7,83.2,19.9,83.3z"/>
<path d="M14.2,38.7c0-4.7-0.1-9.5,0-14.2c0.1-3-1.3-4.4-4.3-4.3c-2.3,0.1-4.5-0.1-6.6-0.9c-1.8-0.6-3.1-1.8-3-3.8
	c0.1-2.1,1.9-2.4,3.6-2.5c10-0.8,19.9-0.8,29.9,0c1.8,0.2,4,0.3,4.3,2.7c0.3,2.5-1.8,3.3-3.7,4c-3.1,1.1-6.3,1.5-9.6,1.2
	c-2.7-0.2-3.2,0.8-3.2,3.3c0,10,0.6,19.9,1.2,29.9c0.1,2.1,0.3,4.2-0.2,6.3c-0.4,1.7-1,2.7-2.9,2.7c-1.7,0-2.8-0.6-3.4-2.3
	c-1.2-3.9-1.4-7.8-1.5-11.8c-0.1-3.5,0-7,0-10.5C14.7,38.7,14.4,38.7,14.2,38.7z"/>
<path d="M121.5,39.3c0-4.4,0.1-8.7,0-13.1c-0.1-5.6-0.3-5.7-5.7-6c-2-0.1-4-0.2-5.8-1.1c-1.5-0.8-2.8-1.8-2.5-3.7
	c0.3-1.8,1.9-2.2,3.4-2.3c10.1-0.8,20.2-0.7,30.3,0c1.7,0.1,3.7,0.5,4,2.6c0.4,2.4-1.5,3.3-3.3,3.9c-3.3,1.2-6.8,1.6-10.3,1.4
	c-2.4-0.2-2.8,0.6-2.9,2.9c-0.1,10.1,0.6,20.2,1,30.3c0.1,1.9,0.1,3.8,0,5.6c-0.1,1.7-0.7,3.2-2.7,3.4c-2.1,0.2-3.3-0.9-3.8-2.8
	c-0.5-2.2-1-4.4-1.1-6.6c-0.2-4.9-0.1-9.7-0.1-14.6C122,39.3,121.7,39.3,121.5,39.3z"/>
<path class="st0" d="M296.2,91.8c-0.1,2.8-1.4,5.3-2.4,7.8c-4.2,9.7-7.2,19.9-11.1,29.8c-0.9,2.2-1.9,4.3-3.2,6.3
	c-1.1,1.7-2.7,3.3-5,2.3c-2.4-1.1-2-3.3-1.3-5.2c1.7-4.9,3.6-9.8,5.5-14.7c0.8-2,0.8-3.8-0.6-5.5c-3.8-4.8-7.6-9.6-11.3-14.4
	c-1.3-1.7-2.4-3.5-3.6-5.3c-0.9-1.5-1.4-3,0.2-4.4c1.8-1.6,3-0.2,4.1,1c4.4,4.6,8.8,9.2,13,14c2,2.3,2.9,1.9,3.8-0.8
	c1.5-4.5,3.8-8.7,6.6-12.6c0.9-1.2,1.5-3.3,3.6-2.4C296.3,88.3,296.3,90.2,296.2,91.8z"/>
<path d="M217.4,33.5c0,6.2,0.1,12.5-0.1,18.7c-0.1,2.7,0.5,3.7,3.4,3.5c4.7-0.3,9.5-0.2,14.2,0.6c1.6,0.3,3.2,0.5,4.7,1.1
	c2.1,0.8,4.5,1.8,3.9,4.6c-0.6,2.7-3.1,2.6-5.2,2.4c-7.9-0.7-15.9-1-23.8-1.9c-3.9-0.4-4.8-2.2-4.7-5.6c0.4-8.2,0.6-16.5,1-24.7
	c0.3-6.2,0.8-12.4,1.3-18.7c0.1-1.9-0.3-4.7,2.4-4.8c3-0.1,3,2.8,3,5.1c0,6.5,0,13,0,19.5C217.5,33.5,217.4,33.5,217.4,33.5z"/>
</svg>
