<?xml version="1.0" encoding="utf-8"?>
<!-- Generator: Adobe Illustrator 19.2.1, SVG Export Plug-In . SVG Version: 6.00 Build 0)  -->
<svg version="1.1" id="Layer_1" xmlns="http://www.w3.org/2000/svg" xmlns:xlink="http://www.w3.org/1999/xlink" x="0px" y="0px"
	 viewBox="0 0 440.6 163.7" style="enable-background:new 0 0 440.6 163.7;" xml:space="preserve">
<style type="text/css">
	.st0{fill:#D22A2E;}
	.st1{fill:#FFFFFF;}
	.st2{fill:#141515;}
	.st3{fill:#FCFBFA;}
</style>
<g>
	<path class="st0" d="M145.1,125.3c-1.1,2.1-2.1,3.6-2.9,5.3c-3.1,6.9-6.3,13.6-7.9,21.1c-0.4,1.8-1.2,3.5-2,5.2
		c-0.7,1.5-1.6,2.9-3.6,2.8c-1.9-0.1-2.3-1.8-2.7-3.1c-2.7-8.6-7-16.5-10.8-24.6c-1.2-2.6-2.7-5-4.3-8c-1.2,2.2-0.9,4-0.8,5.6
		c0.1,8.9,0.3,17.7,0.3,26.6c0,1.8,0.5,4.7-2.2,4.8c-2.3,0.1-2.8-2.5-3.3-4.4c-1.3-5-1.4-10.1-1.6-15.2c-0.4-9.7-0.9-19.5-0.2-29.2
		c0.1-2,0.3-4.2,2.7-4.7c2.1-0.4,3.3,1.3,4.4,2.8c6.9,9.1,11.6,19.4,16.7,29.5c0.6,1.2,1.2,2.3,2.1,4.1c2.4-5.8,4.5-11.2,6.7-16.4
		c2.1-4.8,4.3-9.6,6.4-14.3c0.6-1.4,1.5-2.6,2.6-3.6c2.6-2.2,4.9-1.5,5.9,1.8c1.4,4.8,1.7,9.8,2,14.8c0.6,10,1,20,1.4,29.9
		c0,1.1,0.1,2.3-0.1,3.4c-0.4,1.8-1.2,3.5-3.3,3.5c-2.1,0-2.9-1.7-3.2-3.5c-1-7.9-0.6-16-1.2-23.9
		C146.1,132.1,146.5,129,145.1,125.3z"/>
	<path class="st0" d="M90.8,135.8c0.1,14.6-5.3,23.1-16.3,26.7c-7.6,2.5-18.2,1.7-24.6-8.7c-7.4-12.2-5.7-30.5,2.5-40
		c7.2-8.5,22.2-8.7,29.9-0.8C89.3,119.9,90.3,128.5,90.8,135.8z M83.2,136.5c0.1-3.2-0.1-6.1-0.8-9.1c-1.7-7.3-7.1-12.2-13.8-12.7
		c-6-0.4-11.8,3.6-14.4,10.5c-2.8,7.6-2.7,15.1,1,22.5c4,7.9,10.6,10.2,18.7,6.7C82,150.8,83.3,144,83.2,136.5z"/>
	<path class="st1" d="M95.6,61.6c0.1,13.4-6.6,22.7-18.4,25.6c-9.4,2.3-17.1-1.2-22.4-9.3c-7.6-11.6-5.8-29.3,1.6-39.5
		c6.5-8.9,24.9-9.7,31.3-1.6C92.5,43,95.5,50.9,95.6,61.6z M87.6,59.9c0.3-4.4-0.2-8.7-2.2-12.7c-2.7-5.3-6.7-8.6-12.9-8.4
		c-6.2,0.1-10.4,3.5-12.8,8.8c-4.2,9.1-3.7,18.1,1.8,26.6c1.6,2.4,3.7,4.3,6.7,5.1c9.3,2.6,18.6-4.2,19.5-14.2
		C87.8,63.4,87.6,61.7,87.6,59.9z"/>
	<path class="st0" d="M215,129.7c0-5.3-0.1-12.2,0-19.1c0.1-4.9,1.4-6,6.3-6.6c10.7-1.4,18.7,2.6,23.7,12.2
		c5.5,10.6,7.7,21.6,3.1,33.1c-1.2,3.1-3.4,5.6-6.4,7.1c-5.5,2.8-11.3,4.7-17.5,5c-5.2,0.3-7-1.2-7.7-6.4
		C215.5,147.2,215.6,139.2,215,129.7z M243,135.3c-0.1-3.9-2-9.6-4.5-15.3c-2.5-5.5-6.5-7.8-12.3-7.9c-4.9,0-5.7,0.6-5.5,5.6
		c0.5,9.5,1.1,19,1.8,28.4c0.6,8,0.8,8,8.7,5.9C240.7,149.6,243.1,146.7,243,135.3z"/>
	<path class="st0" d="M187.1,161c-4.4,0-8.7,0-13.1,0c-3.3,0-5.1-1.5-5.4-4.8c-1.4-15.7-2.2-31.4-2.6-47.1c-0.1-3,1.3-5,4.6-5
		c9-0.2,18-0.3,27,0.5c1.5,0.1,3.5-0.2,3.6,2.3c0,2.2-1.2,3.6-3.3,3.9c-3.2,0.4-6.5,0.7-9.7,0.8c-4.2,0.2-8.5,0.3-12.7,0.4
		c-1.9,0-2.7,0.8-2.5,2.7c0.4,3.7,0.7,7.5,0.8,11.2c0,2.9,1.6,3.6,4,3.7c3.9,0.1,7.8-0.1,11.6,0.7c2.3,0.5,5.3,0.9,4.8,4.1
		c-0.4,2.9-2.9,3.8-5.7,3.6c-3.7-0.2-7.5-0.4-11.2-0.8c-2-0.2-3,0.3-2.8,2.6c0.3,3.5,0.4,7,0.5,10.5c0.1,2.7,1.1,3.9,4,4
		c6.6,0.1,13.2,0.6,19.8,0.9c2,0.1,4,0.1,3.9,3.2c-0.1,2.1-0.7,2.8-2.8,2.8C195.6,161,191.4,161.1,187.1,161
		C187.1,161.1,187.1,161,187.1,161z"/>
	<path class="st1" d="M198.1,79.2c0,1.7,0.4,3.8-1.9,4.3c-2.2,0.5-3.1-1.3-3.7-3c-1.2-3.4-2.3-6.8-3.3-10.3c-0.4-1.5-1-2.2-2.7-2.4
		c-5.1-0.5-10.1-1.2-15.2-1.9c-1.7-0.3-2.1,0.7-2.6,1.9c-1.7,3.9-3.4,7.7-5.1,11.6c-0.4,0.9-1,1.7-1.5,2.6c-0.9,1.4-1.8,3.1-3.7,2.3
		c-1.7-0.7-1.2-2.5-1-4c0.7-3.9,2.4-7.6,3.7-11.3c4.5-12.5,9-25,14.4-37.2c0.8-1.7,1.2-4.2,3.6-4.3c2.7-0.1,3.6,2.3,4.6,4.3
		c1.7,3.4,2.1,7.1,3.3,10.7c3.2,10.2,6.5,20.3,9.8,30.5C197.5,75,198.1,77.1,198.1,79.2z M179.8,40.1c-1.9,2.8-2.8,5.2-3.7,7.7
		c-4.3,11.5-4,11.9,8.3,11.2c0.2,0,0.3-0.2,0.6-0.5C183.1,52.6,181,46.8,179.8,40.1z"/>
	<path class="st0" d="M19.9,104.6c3.3-0.2,6.8,0.9,10,3.1c1.3,0.9,2.3,2,2.3,3.7c0,1.9-0.4,3.6-3,2.6c-1.2-0.5-2.4-0.8-3.5-1.2
		c-9.4-2.9-16.2,1.3-18.1,11.1c-1.2,6.4-0.3,12.6,0.8,18.9c0.7,3.7,2.7,6.7,5.6,9c3.4,2.7,6.4,2.7,10.1,0.2c1.7-1.2,3.3-2.5,5.1-3.5
		c1-0.6,2.3-1.6,3.4-0.5c0.9,0.9,0.8,2.4,0.4,3.6c-2.9,7.4-11.2,13.5-20.2,8c-4-2.5-7.5-5.7-9-10.2c-4.3-12.1-5.7-24.3,1-36.1
		C7.8,107.4,12.7,104.5,19.9,104.6z"/>
	<path class="st1" d="M14.2,60c0-4.7-0.1-9.5,0-14.2c0.1-3-1.3-4.4-4.3-4.3c-2.3,0.1-4.5-0.1-6.6-0.9c-1.8-0.6-3.1-1.8-3-3.8
		c0.1-2.1,1.9-2.4,3.6-2.5c10-0.8,19.9-0.8,29.9,0c1.8,0.2,4,0.3,4.3,2.7c0.3,2.5-1.8,3.3-3.7,4c-3.1,1.1-6.3,1.5-9.6,1.2
		c-2.7-0.2-3.2,0.8-3.2,3.3c0,10,0.6,19.9,1.2,29.9c0.1,2.1,0.3,4.2-0.2,6.3c-0.4,1.7-1,2.7-2.9,2.7c-1.7,0-2.8-0.6-3.4-2.3
		c-1.2-3.9-1.4-7.8-1.5-11.8c-0.1-3.5,0-7,0-10.5C14.7,60,14.4,60,14.2,60z"/>
	<path class="st1" d="M121.5,60.6c0-4.4,0.1-8.7,0-13.1c-0.1-5.6-0.3-5.7-5.7-6c-2-0.1-4-0.2-5.8-1.1c-1.5-0.8-2.8-1.8-2.5-3.7
		c0.3-1.8,1.9-2.2,3.4-2.3c10.1-0.8,20.2-0.7,30.3,0c1.7,0.1,3.7,0.5,4,2.6c0.4,2.4-1.5,3.3-3.3,3.9c-3.3,1.2-6.8,1.6-10.3,1.4
		c-2.4-0.2-2.8,0.6-2.9,2.9c-0.1,10.1,0.6,20.2,1,30.3c0.1,1.9,0.1,3.8,0,5.6c-0.1,1.7-0.7,3.2-2.7,3.4c-2.1,0.2-3.3-0.9-3.8-2.8
		c-0.5-2.2-1-4.4-1.1-6.6c-0.2-4.9-0.1-9.7-0.1-14.6C122,60.6,121.7,60.6,121.5,60.6z"/>
	<path class="st0" d="M296.2,113.1c-0.1,2.8-1.4,5.3-2.4,7.8c-4.2,9.7-7.2,19.9-11.1,29.8c-0.9,2.2-1.9,4.3-3.2,6.3
		c-1.1,1.7-2.7,3.3-5,2.3c-2.4-1.1-2-3.3-1.3-5.2c1.7-4.9,3.6-9.8,5.5-14.7c0.8-2,0.8-3.8-0.6-5.5c-3.8-4.8-7.6-9.6-11.3-14.4
		c-1.3-1.7-2.4-3.5-3.6-5.3c-0.9-1.5-1.4-3,0.2-4.4c1.8-1.6,3-0.2,4.1,1c4.4,4.6,8.8,9.2,13,14c2,2.3,2.9,1.9,3.8-0.8
		c1.5-4.5,3.8-8.7,6.6-12.6c0.9-1.2,1.5-3.3,3.6-2.4C296.3,109.6,296.3,111.5,296.2,113.1z"/>
	<path class="st1" d="M217.4,54.8c0,6.2,0.1,12.5-0.1,18.7c-0.1,2.7,0.5,3.7,3.4,3.5c4.7-0.3,9.5-0.2,14.2,0.6
		c1.6,0.3,3.2,0.5,4.7,1.1c2.1,0.8,4.5,1.8,3.9,4.6c-0.6,2.7-3.1,2.6-5.2,2.4c-7.9-0.7-15.9-1-23.8-1.9c-3.9-0.4-4.8-2.2-4.7-5.6
		c0.4-8.2,0.6-16.5,1-24.7c0.3-6.2,0.8-12.4,1.3-18.7c0.1-1.9-0.3-4.7,2.4-4.8c3-0.1,3,2.8,3,5.1c0,6.5,0,13,0,19.5
		C217.5,54.8,217.4,54.8,217.4,54.8z"/>
	<g>
		<path class="st2" d="M315.1,93.9c-1,12.6-3.2,14.1-14.6,12.4c-8.4-1.3-17.1-0.1-25-4.4c-3.5-1.9-7.2-3.5-10.2-6.2
			c-8.7-7.6-7.3-21.3,2.6-27.2c5.5-3.3,11.2-5,17.6-4.7c2.6,0.1,5.3,0,8,0c-0.1-0.6-0.1-1-0.2-1.1c-17.3-8.3-20.5-25.2-19-42.1
			c0.5-6.1,2.1-11.6,7.2-15.9c5.5-4.7,11.2-6.3,17.8-3c6.8,3.4,10.9,8.8,11.7,16.3c0.5,4.6,0,9.4,2.4,13.7c2-0.6,2-2.5,2.7-3.9
			c3.3-6.4,6.4-8.3,12.9-5.9c6.3,2.3,13.4,4.1,16.3,11.5c0.5,1.4,1.7,0.7,2.6,0.5c17.5-4,34.1,1,48.6,9.4
			c14.6,8.4,25.4,21.6,28,39.4c0.6,3.8,2.1,5.9,5.8,7.4c7.7,3,11,9.2,10.3,17.5c-0.8,9.3-5.8,12.7-14.6,9.7c-1.8-0.6-3.4-1.8-4.2,1
			c-2.1,7.4-7.5,10.6-14.6,11.5c-1.1,0.1-1.8,0.7-2.5,1.5c8.9,3.4,12.9,10.8,10.9,20.1c-0.6,2.7-2.3,4.4-4.5,5.7
			c-6,3.6-12.6,4.5-19.3,3.5c-11.5-1.8-20.9-7.8-29.3-15.4c-5.6-5.1-7.2-11.8-6.2-19.2c0.4-2.8-0.5-4.3-3.2-5.7
			c-10-5-19.4-11.1-29.9-15.2c-1.6-0.6-2.3-1.8-3.1-3.1C318.6,99.8,317.2,97.4,315.1,93.9z M415.7,103.1c-0.4-5-1.2-10-1.3-15
			c-0.2-14.9-8.1-25.8-19-34.3c-11-8.6-24.8-10.9-38.4-10.9c-11.2-0.1-21,4.4-30.2,11.5c-13,10.1-12.6,33.2,1.6,41.7
			c11.2,6.7,22.5,13,33.8,19.4c2.8,1.6,5.8,2.8,8.9,3.2c8.6,0.9,17.3,1.9,25.9,2.3C413.3,121.6,416.3,117.6,415.7,103.1z M397,155.2
			c3.4,0.1,6.6-0.5,9.8-1.5c2.6-0.8,2.6-1.7,1.7-4.2c-2.5-6.5-8.8-10.8-9.6-18.2c-0.1-1.3-1.6-0.7-2.5-0.7
			c-9.5-0.6-18.9-1.5-27.8-5.3c-2-0.9-2.8-0.3-3.4,1.9c-1.6,5.4-1,10.3,2.9,14.4C376,149.7,385.3,155.2,397,155.2z M292.3,9.3
			c-5,1.7-10,9.7-9.3,14.4c0.7,4,1.2,8,0.9,11.9c-0.3,3.2,1.4,3.4,3.6,3c2.8-0.4,5.5-1.2,8.3-1.7c2-0.4,3.1-0.3,2,2.5
			c-1.7,4.6-5.2,3.3-8.3,3.1c-4-0.3-4.8,1.1-2.9,4.4c1.2,2,2.2,4.1,3.7,5.9c5.8,7.3,14.5,5.8,22.2,6.6c3.6,0.4,3.9-4.7,6.2-6.9
			c1.4-1.4,1.9-2.8-0.8-3.4c-7.7-1.7-10.8-7-11.3-14.4c-0.1-0.8-0.6-1.5-0.9-2.3c-4.6,2.8-10.6,3-14.1-0.8
			C285.6,24.8,289.1,17.2,292.3,9.3z M295.9,78.7c-2.6,0.4-5.1,0.9-7.5,1.2c-2.5,0.3-5,0.1-7.4,0.5c-3.1,0.5-7.3,6.1-7,9.7
			c0.3,4.3,4.2,5.2,7.2,5.6c4.6,0.6,9.2,1.3,13.7,2.4c3.6,0.9,6.8,0.5,10.1-0.9c9.5-4,9.6-4,5.3-13.5c-0.7-1.6-0.7-4.1-3.2-3.8
			C303.2,80.2,299.5,79.2,295.9,78.7z M341.3,35c-4-3.8-7.6-7.3-12.3-9.2c-5-2-6.3-1.3-8,3.8c-1.4,4.1-1.2,8.2-0.8,12.3
			c0.3,3.1,2.5,4.2,4.7,2.1C329.5,39.7,335.3,37.8,341.3,35z M424.9,92.7c-1.6,6.5-1.1,12.5-0.7,18.4c0.3,4.3,4,3.1,6.4,3.8
			c2.7,0.7,3.4-1.1,3.8-3.3C436,103,429.9,98.5,424.9,92.7z M299.1,11.2c-0.1,5.9-1.5,11-2.3,16.2c-0.2,1.1-1.8,2.9,0.2,3.3
			c1.9,0.4,4.4,1,5.9-1C307.3,23.7,305.9,16.4,299.1,11.2z"/>
		<path class="st0" d="M415.7,103.1c0.6,14.5-2.5,18.6-18.5,17.9c-8.7-0.3-17.3-1.4-25.9-2.3c-3.2-0.3-6.2-1.6-8.9-3.2
			c-11.3-6.4-22.7-12.8-33.8-19.4c-14.3-8.5-14.6-31.6-1.6-41.7c9.1-7.1,19-11.6,30.2-11.5c13.6,0.1,27.3,2.3,38.4,10.9
			c10.9,8.5,18.8,19.4,19,34.3C414.6,93.1,415.3,98.1,415.7,103.1z"/>
		<path class="st3" d="M397,155.2c-11.8,0-21-5.5-28.9-13.7c-3.9-4-4.5-9-2.9-14.4c0.6-2.2,1.4-2.7,3.4-1.9
			c8.9,3.8,18.3,4.8,27.8,5.3c0.9,0.1,2.4-0.5,2.5,0.7c0.8,7.4,7.1,11.7,9.6,18.2c1,2.5,0.9,3.5-1.7,4.2
			C403.6,154.7,400.4,155.3,397,155.2z"/>
		<path class="st3" d="M292.3,9.3c-3.3,7.9-6.8,15.5-0.5,22.4c3.5,3.8,9.5,3.6,14.1,0.8c0.3,0.8,0.8,1.5,0.9,2.3
			c0.5,7.4,3.6,12.7,11.3,14.4c2.7,0.6,2.2,2,0.8,3.4c-2.3,2.2-2.6,7.3-6.2,6.9c-7.7-0.8-16.4,0.7-22.2-6.6
			c-1.4-1.8-2.5-3.9-3.7-5.9c-2-3.3-1.1-4.7,2.9-4.4c3.1,0.2,6.6,1.5,8.3-3.1c1-2.8,0-2.9-2-2.5c-2.8,0.5-5.5,1.2-8.3,1.7
			c-2.2,0.4-3.9,0.2-3.6-3c0.3-4-0.2-8-0.9-11.9C282.3,19,287.3,11,292.3,9.3z"/>
		<path class="st3" d="M341.3,35c-6,2.8-11.8,4.7-16.4,9.1c-2.2,2.1-4.4,1-4.7-2.1c-0.4-4.1-0.6-8.3,0.8-12.3c1.7-5.1,3-5.8,8-3.8
			C333.7,27.7,337.3,31.2,341.3,35z"/>
		<path class="st3" d="M295.9,78.7c3.6,0.6,7.3,1.5,11.2,1.1c2.5-0.2,2.5,2.2,3.2,3.8c4.2,9.5,4.2,9.5-5.3,13.5
			c-3.4,1.4-6.5,1.8-10.1,0.9c-4.5-1.1-9.1-1.8-13.7-2.4c-3.1-0.4-6.9-1.4-7.2-5.6c-0.2-3.6,3.9-9.2,7-9.7c2.4-0.4,5-0.2,7.4-0.5
			C290.9,79.6,293.3,79.1,295.9,78.7z"/>
		<path class="st3" d="M424.9,92.7c5,5.8,11.1,10.3,9.5,18.9c-0.4,2.2-1.1,4-3.8,3.3c-2.5-0.7-6.1,0.5-6.4-3.8
			C423.8,105.2,423.3,99.2,424.9,92.7z"/>
		<path class="st3" d="M299.1,11.2c6.9,5.2,8.2,12.5,3.9,18.5c-1.5,2-4.1,1.4-5.9,1c-2-0.4-0.4-2.1-0.2-3.3
			C297.5,22.2,299,17.1,299.1,11.2z"/>
	</g>
</g>
</svg>
